<?xml version="1.0" encoding="UTF-8" standalone="no"?>


<!-- Uploaded to: SVG Repo, www.svgrepo.com, Generator: SVG Repo Mixer Tools -->
<svg 
   xmlns:dc="http://purl.org/dc/elements/1.1/"
   xmlns:cc="http://creativecommons.org/ns#"
   xmlns:rdf="http://www.w3.org/1999/02/22-rdf-syntax-ns#"
   xmlns:svg="http://www.w3.org/2000/svg"
   xmlns="http://www.w3.org/2000/svg"
   xmlns:sodipodi="http://sodipodi.sourceforge.net/DTD/sodipodi-0.dtd"
   xmlns:inkscape="http://www.inkscape.org/namespaces/inkscape"
   width="30"
   height="30"
   viewBox="0 0 30 30"
   version="1.1"
   id="svg822"
   inkscape:version="0.92.4 (f8dce91, 2019-08-02)"
   sodipodi:docname="history.svg">
  <defs
     id="defs816" />
  <sodipodi:namedview
     id="base"
     pagecolor="#ffffff"
     bordercolor="#666666"
     borderopacity="1.0"
     inkscape:pageopacity="0.0"
     inkscape:pageshadow="2"
     inkscape:zoom="8"
     inkscape:cx="14.172702"
     inkscape:cy="25.172925"
     inkscape:document-units="px"
     inkscape:current-layer="layer1"
     showgrid="true"
     units="px"
     inkscape:window-width="1366"
     inkscape:window-height="713"
     inkscape:window-x="0"
     inkscape:window-y="0"
     inkscape:window-maximized="1"
     showguides="false">
    <inkscape:grid
       type="xygrid"
       id="grid816" />
  </sodipodi:namedview>
  <metadata
     id="metadata819">
    <rdf:RDF>
      <cc:Work
         rdf:about="">
        <dc:format>image/svg+xml</dc:format>
        <dc:type
           rdf:resource="http://purl.org/dc/dcmitype/StillImage" />
        <dc:title>
</dc:title>
      </cc:Work>
    </rdf:RDF>
  </metadata>
  <g
     inkscape:label="Layer 1"
     inkscape:groupmode="layer"
     id="layer1"
     transform="translate(0,-289.0625)">
    <path
       style="color:#000000;font-style:normal;font-variant:normal;font-weight:normal;font-stretch:normal;font-size:medium;line-height:normal;font-family:sans-serif;font-variant-ligatures:normal;font-variant-position:normal;font-variant-caps:normal;font-variant-numeric:normal;font-variant-alternates:normal;font-feature-settings:normal;text-indent:0;text-align:start;text-decoration:none;text-decoration-line:none;text-decoration-style:solid;text-decoration-color:#000000;letter-spacing:normal;word-spacing:normal;text-transform:none;writing-mode:lr-tb;direction:ltr;text-orientation:mixed;dominant-baseline:auto;baseline-shift:baseline;text-anchor:start;white-space:normal;shape-padding:0;clip-rule:nonzero;display:inline;overflow:visible;visibility:visible;opacity:1;isolation:auto;mix-blend-mode:normal;color-interpolation:sRGB;color-interpolation-filters:linearRGB;solid-color:#000000;solid-opacity:1;vector-effect:none;fill:#000000;fill-opacity:1;fill-rule:nonzero;stroke:none;stroke-width:2;stroke-linecap:butt;stroke-linejoin:miter;stroke-miterlimit:4;stroke-dasharray:none;stroke-dashoffset:0;stroke-opacity:1;color-rendering:auto;image-rendering:auto;shape-rendering:auto;text-rendering:auto;enable-background:accumulate"
       d="M 15 6.0058594 C 12.694605 6.0058594 10.38989 6.8835437 8.6367188 8.6367188 L 6.515625 6.515625 L 5.8066406 12.878906 L 12.171875 12.171875 L 10.050781 10.050781 C 12.792827 7.3087317 17.207172 7.3087317 19.949219 10.050781 C 22.691266 12.792831 22.691265 17.207179 19.949219 19.949219 C 17.207174 22.691269 12.792828 22.691269 10.050781 19.949219 C 8.9801192 18.878559 8.3322139 17.553555 8.0976562 16.171875 L 6.0917969 16.171875 C 6.3391432 18.072165 7.1815466 19.908111 8.6367188 21.363281 C 12.143063 24.869621 17.856938 24.869621 21.363281 21.363281 C 24.869624 17.856941 24.869625 12.143059 21.363281 8.6367188 C 19.610109 6.8835436 17.305395 6.0058594 15 6.0058594 z M 15 10 C 14.446 10 14 10.446 14 11 L 14 14 C 14 14.042882 14.01825 14.079663 14.023438 14.121094 C 14.032622 14.196336 14.04179 14.269417 14.068359 14.341797 C 14.092519 14.408029 14.131077 14.462717 14.167969 14.521484 C 14.192904 14.561519 14.203145 14.607313 14.234375 14.644531 L 16.804688 17.708984 C 17.160792 18.133373 17.790455 18.188136 18.214844 17.832031 C 18.639232 17.475927 18.693995 16.848217 18.337891 16.423828 L 16 13.638672 L 16 11 C 16 10.446 15.554 10 15 10 z "
       transform="translate(0,289.0625)"
       id="path852" />
  </g>
</svg>